<?xml version="1.0" encoding="utf-8"?>
<!-- Generator: Adobe Illustrator 20.1.0, SVG Export Plug-In . SVG Version: 6.00 Build 0)  -->
<svg version="1.1" id="Слой_1" xmlns="http://www.w3.org/2000/svg" xmlns:xlink="http://www.w3.org/1999/xlink" x="0px" y="0px"
	 viewBox="0 0 67.7 77.3" style="enable-background:new 0 0 67.7 77.3;" xml:space="preserve">
<style type="text/css">
	.st0{clip-path:url(#SVGID_2_);}
	.st1{clip-path:url(#SVGID_4_);}
	.st2{clip-path:url(#SVGID_6_);}
	.st3{clip-path:url(#SVGID_2_);fill:none;stroke:#000000;stroke-width:0.5;stroke-linecap:round;stroke-linejoin:round;}
</style>
<g>
	<defs>
		<rect id="SVGID_1_" y="0" width="67.7" height="77.3"/>
	</defs>
	<clipPath id="SVGID_2_">
		<use xlink:href="#SVGID_1_"  style="overflow:visible;"/>
	</clipPath>
	<g class="st0">
		<defs>
			<rect id="SVGID_3_" x="0.3" y="0.3" width="67.2" height="76.8"/>
		</defs>
		<clipPath id="SVGID_4_">
			<use xlink:href="#SVGID_3_"  style="overflow:visible;"/>
		</clipPath>
		<g class="st1">
			<defs>
				<rect id="SVGID_5_" x="0.3" y="0.3" width="67.2" height="76.8"/>
			</defs>
			<clipPath id="SVGID_6_">
				<use xlink:href="#SVGID_5_"  style="overflow:visible;"/>
			</clipPath>
			<path class="st2" d="M28.8,0.3c9.1,0,16.5,7.4,16.5,16.5s-7.4,16.6-16.5,16.6c-9.1,0-16.5-7.4-16.5-16.6
				C12.3,7.8,19.6,0.3,28.8,0.3 M41.1,16.9c0-6.8-5.6-12.4-12.4-12.4c-6.8,0-12.4,5.6-12.4,12.4s5.6,12.4,12.4,12.4
				C35.5,29.3,41.1,23.7,41.1,16.9"/>
			<path class="st2" d="M50.1,35.8L52.6,46l-3.9,1l-1.7-7.2h-9c-1.1,3.6-4,7.6-9.1,7.6c-5.2,0-8.1-3.8-9.2-7.6h-9L4.2,65.4l-3.9-1
				l7.3-28.6h15.5l0.2,1.7c0,0.2,0.9,5.9,5.5,5.9c2,0,3.5-0.9,4.5-2.8c0.9-1.5,1.1-3.1,1.1-3.1l0.2-1.7H50.1z"/>
			<path class="st2" d="M67.4,52.5v17.2c0,0.9-0.7,1.6-1.6,1.6H46.4l-7.3,5.6c-0.2,0.1-0.4,0.2-0.6,0.2c-0.2,0-0.3,0-0.4-0.1
				c-0.3-0.2-0.4-0.4-0.4-0.8l0.4-4.9h-1.6c-0.9,0-1.6-0.7-1.6-1.6V52.5c0-0.9,0.7-1.6,1.6-1.6h29.4C66.8,50.8,67.4,51.6,67.4,52.5
				 M50.3,67.9l8.7-11L56.4,55l-6.5,8.2l-3.6-3.6l-2.2,2.2L50.3,67.9z"/>
		</g>
	</g>
	<path class="st3" d="M50.1,35.8L52.6,46l-3.9,1l-1.7-7.2h-9c-1.1,3.6-4,7.6-9.1,7.6c-5.2,0-8.1-3.8-9.2-7.6h-9L4.2,65.4l-3.9-1
		l7.3-28.6h15.5l0.2,1.7c0,0.2,0.9,5.9,5.5,5.9c2,0,3.5-0.9,4.5-2.8c0.9-1.5,1.1-3.1,1.1-3.1l0.2-1.7H50.1z"/>
	<path class="st3" d="M28.8,29.3c6.8,0,12.4-5.6,12.4-12.4S35.6,4.5,28.8,4.5c-6.8,0-12.4,5.6-12.4,12.4S21.9,29.3,28.8,29.3z"/>
	<path class="st3" d="M28.8,0.3c9.1,0,16.5,7.4,16.5,16.5s-7.4,16.6-16.5,16.6c-9.1,0-16.5-7.4-16.5-16.6
		C12.3,7.8,19.6,0.3,28.8,0.3z"/>
	<path class="st3" d="M67.4,52.5v17.2c0,0.9-0.7,1.6-1.6,1.6H46.3l-7.3,5.6c-0.2,0.1-0.4,0.2-0.6,0.2c-0.2,0-0.3,0-0.4-0.1
		c-0.3-0.2-0.4-0.4-0.4-0.8l0.4-4.9h-1.6c-0.9,0-1.6-0.7-1.6-1.6V52.5c0-0.9,0.7-1.6,1.6-1.6h29.4C66.8,50.8,67.4,51.6,67.4,52.5z"
		/>
	<polygon class="st3" points="50.3,67.9 58.9,56.9 56.4,55 49.9,63.2 46.4,59.6 44.1,61.8 	"/>
</g>
</svg>
