<?xml version="1.0" encoding="utf-8"?>
<!-- Generator: Adobe Illustrator 20.1.0, SVG Export Plug-In . SVG Version: 6.00 Build 0)  -->
<svg version="1.1" id="Слой_1" xmlns="http://www.w3.org/2000/svg" xmlns:xlink="http://www.w3.org/1999/xlink" x="0px" y="0px"
	 viewBox="0 0 61.9 50" style="enable-background:new 0 0 61.9 50;" xml:space="preserve">
<style type="text/css">
	.st0{clip-path:url(#SVGID_2_);}
	.st1{clip-path:url(#SVGID_4_);}
	.st2{clip-path:url(#SVGID_6_);}
</style>
<g>
	<defs>
		<rect id="SVGID_1_" y="0" width="61.9" height="50"/>
	</defs>
	<clipPath id="SVGID_2_">
		<use xlink:href="#SVGID_1_"  style="overflow:visible;"/>
	</clipPath>
	<g class="st0">
		<defs>
			<rect id="SVGID_3_" x="0.3" y="0.3" width="61.4" height="49.5"/>
		</defs>
		<clipPath id="SVGID_4_">
			<use xlink:href="#SVGID_3_"  style="overflow:visible;"/>
		</clipPath>
		<g class="st1">
			<defs>
				<rect id="SVGID_5_" x="0.3" y="0.3" width="61.4" height="49.5"/>
			</defs>
			<clipPath id="SVGID_6_">
				<use xlink:href="#SVGID_5_"  style="overflow:visible;"/>
			</clipPath>
			<path class="st2" d="M61.7,3.3v32.4c0,1.7-1.4,3.1-3.1,3.1H21.8L8.1,49.4c-0.3,0.2-0.7,0.4-1.1,0.4c-0.3,0-0.6-0.1-0.8-0.2
				c-0.5-0.3-0.8-0.9-0.7-1.4l0.8-9.3h-3c-1.7,0-3.1-1.3-3.1-3.1V3.3c0-1.7,1.3-3.1,3.1-3.1h55.3C60.2,0.3,61.7,1.6,61.7,3.3
				 M29.2,32.3l16.4-20.7L41,8L28.7,23.5L22,16.7L17.8,21L29.2,32.3z"/>
		</g>
	</g>
</g>
</svg>
